<svg width="26" height="27" viewBox="0 0 26 27" fill="none" xmlns="http://www.w3.org/2000/svg">
    <path d="M6.363 17.802H21.94v5.705H6.363a2.852 2.852 0 1 1 0-5.705zm-5.047-5.704h15.578a2.852 2.852 0 1 1 0 5.704H1.316v-5.704zm6.802-5.705h15.578v5.705H8.118a2.852 2.852 0 1 1 0-5.705zM4.388.69h15.578a2.852 2.852 0 1 1 0 5.704H4.388V.69z" fill="#fff"/>
    <path d="M21.94 19.119H3.95l1.316-1.317H21.94v1.317zM19.308 13.414H1.316v-1.316H18.43l.878 1.316zM23.696 7.71H5.705l.877-1.317h17.114V7.71z" fill="#E6E6E6"/>
    <path d="M10.531 21.313v4.827l-1.755-1.756-1.755 1.756v-4.827h3.51z" fill="#133551"/>
    <path d="M9.654 23.287c0 .558-.124 1.108-.364 1.61l-.514-.513-1.755 1.756v-4.827h2.067c.371.591.568 1.276.566 1.974zM5.705.689H4.388v5.704h1.317V.69zM2.633 12.098H1.316v5.704h1.317v-5.704z" fill="#72AABE"/>
    <path d="M23.695 6.393H22.38v5.705h1.316V6.393zM21.94 17.802h-1.316v5.705h1.317v-5.705z" fill="#133551"/>
    <path d="M24.573 11.659h-.439V6.832h.44a.439.439 0 1 0 0-.878h-2.38A3.287 3.287 0 0 0 19.967.25H3.51a.439.439 0 0 0 0 .878h.44v4.826h-.44a.439.439 0 0 0 0 .878H5.89a3.273 3.273 0 0 0 0 4.827H.439a.439.439 0 1 0 0 .878h.439v4.826h-.44a.439.439 0 1 0 0 .878H4.13l-.096.088a3.292 3.292 0 0 0 2.33 5.617h.22v2.194a.439.439 0 0 0 .271.403.439.439 0 0 0 .478-.092l1.444-1.448 1.444 1.448a.439.439 0 0 0 .675-.068.44.44 0 0 0 .075-.243v-2.194h11.848a.439.439 0 0 0 0-.878h-.439v-4.827h.439a.44.44 0 0 0 0-.878h-3.695a3.273 3.273 0 0 0 0-4.826h5.45a.439.439 0 1 0 0-.878zM4.827 5.954V1.128h15.139a2.414 2.414 0 1 1 0 4.826H4.826zm5.266 19.128-1.005-1.01a.438.438 0 0 0-.623 0l-1.005 1.01v-3.33h2.633v3.33zm11.409-6.84v4.826H10.97v-1.755a.439.439 0 0 0-.439-.44h-3.51a.44.44 0 0 0-.439.44v1.755h-.22a2.413 2.413 0 0 1 0-4.827h15.14zm-2.194-3.292a2.418 2.418 0 0 1-2.414 2.413H1.755v-4.826h15.14a2.418 2.418 0 0 1 2.413 2.413zm3.949-3.291H8.117a2.413 2.413 0 0 1 0-4.827h15.14v4.827z" fill="#4E5B5F"/>
</svg>
