<svg width="16" height="16" viewBox="0 0 16 16" fill="none" style="color:#fff" xmlns="http://www.w3.org/2000/svg">
    <path d="M.381 2.658h2.7a2.29 2.29 0 0 0 2.252 1.894 2.283 2.283 0 0 0 2.252-1.894h8.034a.38.38 0 0 0 .27-.652.38.38 0 0 0-.27-.112H7.585A2.29 2.29 0 0 0 5.333 0a2.283 2.283 0 0 0-2.251 1.894H.38a.38.38 0 0 0 0 .764zM5.333.75a1.522 1.522 0 0 1 1.408.942 1.529 1.529 0 0 1-1.11 2.081A1.521 1.521 0 0 1 3.81 2.276 1.528 1.528 0 0 1 5.333.75zM15.62 7.618h-2.7a2.29 2.29 0 0 0-2.252-1.894 2.284 2.284 0 0 0-2.252 1.894H.381a.38.38 0 0 0-.27.652.38.38 0 0 0 .27.112h8.034a2.29 2.29 0 0 0 2.252 1.894 2.284 2.284 0 0 0 2.251-1.894h2.701a.38.38 0 0 0 .27-.652.38.38 0 0 0-.27-.112zm-4.952 1.908a1.522 1.522 0 0 1-1.408-.942 1.529 1.529 0 0 1 1.11-2.081A1.521 1.521 0 0 1 12.191 8a1.528 1.528 0 0 1-1.524 1.526zm4.952 3.816H7.585a2.29 2.29 0 0 0-2.252-1.894 2.283 2.283 0 0 0-2.251 1.894H.38a.38.38 0 0 0-.27.652.38.38 0 0 0 .27.111h2.7A2.29 2.29 0 0 0 5.334 16a2.283 2.283 0 0 0 2.252-1.895h8.034a.38.38 0 0 0 .27-.65.38.38 0 0 0-.27-.113zM5.333 15.25a1.522 1.522 0 0 1-1.407-.942 1.529 1.529 0 0 1 1.11-2.081 1.522 1.522 0 0 1 1.821 1.497 1.528 1.528 0 0 1-1.524 1.526z" fill="#fff"/>
</svg>
