<svg width="30" height="30" viewBox="0 0 30 30" fill="none" xmlns="http://www.w3.org/2000/svg">
<circle cx="15" cy="15" r="15" fill="white"/>
<path d="M22.1305 9.60549C21.9781 9.21082 21.7447 8.85245 21.4454 8.55346C21.1461 8.25446 20.7875 8.02148 20.3927 7.86951C19.849 7.66816 19.2748 7.56173 18.6951 7.55488C17.7311 7.51098 17.4421 7.5 15 7.5C12.5579 7.5 12.2689 7.51098 11.3049 7.55488C10.7246 7.56152 10.1497 7.66795 9.60549 7.86951C9.21082 8.0219 8.85245 8.25526 8.55346 8.55457C8.25446 8.85387 8.02148 9.21249 7.86951 9.60732C7.66816 10.151 7.56173 10.7252 7.55488 11.3049C7.51098 12.2689 7.5 12.5579 7.5 15C7.5 17.4421 7.51098 17.7311 7.55488 18.6951C7.56152 19.2754 7.66795 19.8503 7.86951 20.3945C8.0219 20.7892 8.25526 21.1476 8.55457 21.4465C8.85387 21.7455 9.21249 21.9785 9.60732 22.1305C10.151 22.3318 10.7252 22.4383 11.3049 22.4451C12.2689 22.489 12.5579 22.5 15 22.5C17.4421 22.5 17.7311 22.489 18.6951 22.4451C19.2754 22.4385 19.8503 22.3321 20.3945 22.1305C20.7892 21.9781 21.1476 21.7447 21.4465 21.4454C21.7455 21.1461 21.9785 20.7875 22.1305 20.3927C22.3318 19.849 22.4383 19.2748 22.4451 18.6951C22.489 17.7311 22.5 17.4421 22.5 15C22.5 12.5579 22.489 12.2689 22.4451 11.3049C22.4385 10.7246 22.3321 10.1497 22.1305 9.60549ZM15 19.6976C14.0709 19.6976 13.1627 19.4221 12.3902 18.9059C11.6177 18.3897 11.0156 17.656 10.66 16.7977C10.3045 15.9393 10.2114 14.9948 10.3927 14.0836C10.574 13.1723 11.0214 12.3353 11.6783 11.6783C12.3353 11.0214 13.1723 10.574 14.0836 10.3927C14.9948 10.2114 15.9393 10.3045 16.7977 10.66C17.656 11.0156 18.3897 11.6177 18.9059 12.3902C19.4221 13.1627 19.6976 14.0709 19.6976 15C19.6976 16.2459 19.2026 17.4407 18.3217 18.3217C17.4407 19.2026 16.2459 19.6976 15 19.6976ZM19.8823 11.2152C19.6652 11.2152 19.453 11.1509 19.2725 11.0303C19.0921 10.9097 18.9514 10.7383 18.8683 10.5377C18.7852 10.3371 18.7635 10.1165 18.8058 9.90356C18.8482 9.69065 18.9527 9.49509 19.1062 9.34159C19.2597 9.18809 19.4553 9.08356 19.6682 9.04121C19.8811 8.99886 20.1018 9.0206 20.3023 9.10367C20.5029 9.18674 20.6743 9.32742 20.7949 9.50791C20.9155 9.6884 20.9799 9.90061 20.9799 10.1177C20.9799 10.4088 20.8642 10.6879 20.6584 10.8938C20.4526 11.0996 20.1734 11.2152 19.8823 11.2152Z" fill="#01002F"/>
<path d="M14.9996 18.0495C16.6837 18.0495 18.049 16.6842 18.049 15.0001C18.049 13.3159 16.6837 11.9507 14.9996 11.9507C13.3155 11.9507 11.9502 13.3159 11.9502 15.0001C11.9502 16.6842 13.3155 18.0495 14.9996 18.0495Z" fill="#01002F"/>
</svg>
