<svg width="30" height="30" viewBox="0 0 30 30" fill="none" xmlns="http://www.w3.org/2000/svg">
<circle cx="14.5" cy="15.5" r="13.5" fill="black"/>
<path d="M15.0038 0H14.9963C6.72565 0 1.96817e-05 6.7275 1.96817e-05 15C-0.00511613 18.1594 0.994986 21.2385 2.85564 23.7919L0.98627 29.3644L6.75189 27.5213C9.19759 29.1438 12.0688 30.0063 15.0038 30C23.2744 30 30 23.2706 30 15C30 6.72938 23.2744 0 15.0038 0ZM23.7319 21.1819C23.37 22.2038 21.9338 23.0513 20.7881 23.2987C20.0044 23.4656 18.9806 23.5988 15.5344 22.17C11.1263 20.3438 8.28752 15.8644 8.06627 15.5738C7.85439 15.2831 6.28502 13.2019 6.28502 11.0494C6.28502 8.89688 7.37814 7.84875 7.81877 7.39875C8.18064 7.02938 8.77877 6.86063 9.35252 6.86063C9.53814 6.86063 9.70502 6.87 9.85502 6.8775C10.2956 6.89625 10.5169 6.9225 10.8075 7.61813C11.1694 8.49 12.0506 10.6425 12.1556 10.8638C12.2625 11.085 12.3694 11.385 12.2194 11.6756C12.0788 11.9756 11.955 12.1088 11.7338 12.3638C11.5125 12.6188 11.3025 12.8138 11.0813 13.0875C10.8788 13.3256 10.65 13.5806 10.905 14.0213C11.16 14.4525 12.0413 15.8906 13.3388 17.0456C15.0131 18.5363 16.3706 19.0125 16.8563 19.215C17.2181 19.365 17.6494 19.3294 17.9138 19.0481C18.2494 18.6863 18.6638 18.0863 19.0856 17.4956C19.3856 17.0719 19.7644 17.0194 20.1619 17.1694C20.5669 17.31 22.71 18.3694 23.1506 18.5888C23.5913 18.81 23.8819 18.915 23.9888 19.1006C24.0938 19.2863 24.0938 20.1581 23.7319 21.1819Z" fill="white"/>
</svg>
