<svg xmlns="http://www.w3.org/2000/svg" width="19.585" height="23.369" viewBox="0 0 19.585 23.369">
    <g data-name="Grupo 457">
        <path data-name="Trazado 377" d="M-108.856 155.067h-3.036a4.9 4.9 0 0 0-4.8-3.895h-1.958a4.9 4.9 0 0 0-4.8 3.895h-3.036a.977.977 0 0 0-.979.974.977.977 0 0 0 .979.974h.979v12.658a4.888 4.888 0 0 0 4.9 4.869h5.875a4.888 4.888 0 0 0 4.9-4.869v-12.659h.979a.977.977 0 0 0 .979-.974.977.977 0 0 0-.982-.973zm-9.792-1.947h1.958a2.942 2.942 0 0 1 2.77 1.947h-7.5a2.943 2.943 0 0 1 2.771-1.948zm6.855 16.553a2.929 2.929 0 0 1-2.938 2.921h-5.875a2.929 2.929 0 0 1-2.938-2.921v-12.659h11.751z" transform="translate(127.462 -151.172)" style="fill:#246e46"/>
        <path data-name="Trazado 379" d="M-114.725 173.541a1.65 1.65 0 0 0 1.737-1.546v-9.277a1.65 1.65 0 0 0-1.737-1.546 1.65 1.65 0 0 0-1.737 1.546v9.277a1.651 1.651 0 0 0 1.737 1.546z" transform="translate(127.573 -154.172)" style="fill:#246e46"/>
        <path data-name="Trazado 378" d="M-118.725 173.541a1.65 1.65 0 0 0 1.737-1.546v-9.277a1.65 1.65 0 0 0-1.737-1.546 1.65 1.65 0 0 0-1.737 1.546v9.277a1.651 1.651 0 0 0 1.737 1.546z" transform="translate(125.462 -154.172)" style="fill:#246e46"/>
    </g>
</svg>
