<svg xmlns="http://www.w3.org/2000/svg" width="20" height="24" viewBox="0 0 20 24">
    <defs>
        <style>
            .cls-1{fill:#323e48}
        </style>
    </defs>
    <g id="fi-rr-shield-check" transform="translate(-2)">
        <path id="Trazado_380" data-name="Trazado 380" class="cls-1" d="M18.581 2.14 12.316.051a1 1 0 0 0-.632 0L5.419 2.14A4.993 4.993 0 0 0 2 6.883V12c0 7.563 9.2 11.74 9.594 11.914a1 1 0 0 0 .812 0C12.8 23.74 22 19.563 22 12V6.883a4.993 4.993 0 0 0-3.419-4.743zM20 12c0 5.455-6.319 9.033-8 9.889-1.683-.853-8-4.42-8-9.889V6.883a3 3 0 0 1 2.052-2.846L12 2.054l5.948 1.983A3 3 0 0 1 20 6.883z"/>
        <path id="Trazado_381" data-name="Trazado 381" class="cls-1" d="m15.3 8.3-4.188 4.2-2.244-2.34a1 1 0 1 0-1.441 1.386l2.306 2.4a1.872 1.872 0 0 0 1.345.6h.033a1.873 1.873 0 0 0 1.335-.553l4.272-4.272A1 1 0 1 0 15.3 8.3z"/>
    </g>
</svg>
