<svg width="40" height="40" viewBox="0 0 40 40" fill="none" xmlns="http://www.w3.org/2000/svg">
    <circle cx="20" cy="20" r="20" fill="#FFFFFF"/>
    <path d="m26.027 16.787-.294 9.262a3.109 3.109 0 0 1-.895 2.096 2.872 2.872 0 0 1-2.045.855h-5.587a2.872 2.872 0 0 1-2.044-.854 3.11 3.11 0 0 1-.896-2.094l-.294-9.265a.783.783 0 0 1 .198-.549.719.719 0 0 1 1.04-.036c.142.14.226.331.232.534l.294 9.265c.015.395.176.77.45 1.044s.64.427 1.02.427h5.587c.38 0 .747-.153 1.021-.428.274-.275.435-.65.45-1.046l.293-9.262a.78.78 0 0 1 .233-.533.72.72 0 0 1 1.04.035.784.784 0 0 1 .198.549zM27 13.704a.78.78 0 0 1-.215.541.72.72 0 0 1-.52.224h-12.53a.72.72 0 0 1-.52-.224.78.78 0 0 1-.215-.54c0-.204.077-.398.215-.542a.72.72 0 0 1 .52-.224h2.279a.918.918 0 0 0 .63-.25.99.99 0 0 0 .306-.628c.054-.566.309-1.09.714-1.471a2.15 2.15 0 0 1 1.48-.59h1.712a2.15 2.15 0 0 1 1.48.59c.405.38.66.905.714 1.471a.99.99 0 0 0 .305.627.918.918 0 0 0 .63.251h2.28a.72.72 0 0 1 .519.224.782.782 0 0 1 .215.541H27zm-8.774-.765h3.549a2.607 2.607 0 0 1-.188-.722.776.776 0 0 0-.238-.49.72.72 0 0 0-.492-.198h-1.713a.72.72 0 0 0-.493.197.776.776 0 0 0-.238.491c-.028.25-.091.493-.188.722zm.74 11.592v-6.515a.782.782 0 0 0-.215-.54.72.72 0 0 0-.52-.225.72.72 0 0 0-.52.224.781.781 0 0 0-.215.541v6.518c0 .203.077.397.215.54a.72.72 0 0 0 .52.225.72.72 0 0 0 .52-.224.782.782 0 0 0 .215-.541v-.003zm3.539 0v-6.515a.781.781 0 0 0-.215-.54.72.72 0 0 0-.52-.225.72.72 0 0 0-.52.224.781.781 0 0 0-.215.541v6.518c0 .203.077.397.215.54a.72.72 0 0 0 .52.225.72.72 0 0 0 .52-.224.781.781 0 0 0 .215-.541v-.003z" fill="#000"/>
</svg>
