<svg width="40" height="40" viewBox="0 0 40 40" fill="none" xmlns="http://www.w3.org/2000/svg">
    <circle cx="20" cy="20" r="20" fill="#FFFFFF"/>
    <path d="M28.1 21.8a.9.9 0 0 0-.9.9v3.6a.9.9 0 0 1-.9.9H13.7a.9.9 0 0 1-.9-.9v-3.6a.9.9 0 1 0-1.8 0v3.6a2.7 2.7 0 0 0 2.7 2.7h12.6a2.7 2.7 0 0 0 2.7-2.7v-3.6a.9.9 0 0 0-.9-.9zm-8.739 1.539a.9.9 0 0 0 .297.189.846.846 0 0 0 .684 0 .9.9 0 0 0 .297-.189l3.6-3.6a.904.904 0 1 0-1.278-1.278l-2.061 2.07V11.9a.9.9 0 1 0-1.8 0v8.631l-2.061-2.07a.903.903 0 1 0-1.278 1.278l3.6 3.6z" fill="#000"/>
</svg>
