<svg width="40" height="40" viewBox="0 0 40 40" fill="none" xmlns="http://www.w3.org/2000/svg">
    <circle cx="20" cy="20" r="20" fill="#FFFFFF"/>
    <g clip-path="url(#1wxj31rzva)" fill="#000">
        <path d="M13.625 29h11.25a2.632 2.632 0 0 0 2.625-2.635v-5.652a.75.75 0 1 0-1.5 0v5.652a1.131 1.131 0 0 1-1.125 1.135h-11.25a1.131 1.131 0 0 1-1.125-1.135v-11.23A1.131 1.131 0 0 1 13.625 14h5.625a.75.75 0 1 0 0-1.5h-5.625A2.632 2.632 0 0 0 11 15.135v11.23A2.633 2.633 0 0 0 13.625 29z"/>
        <path d="m18.091 18.908-.591 2.71a.75.75 0 0 0 .203.691.777.777 0 0 0 .69.202l2.704-.593a.75.75 0 0 0 .37-.203l6.836-6.836a2.25 2.25 0 0 0 0-3.182 2.303 2.303 0 0 0-3.181 0l-6.825 6.842a.75.75 0 0 0-.206.37zm8.091-6.15a.766.766 0 0 1 1.06 0 .757.757 0 0 1 0 1.06l-.53.53-1.06-1.06.53-.53zm-6.675 6.686 5.08-5.094 1.05 1.056-5.082 5.094-1.346.296.298-1.352z"/>
    </g>
    <defs>
        <clipPath id="1wxj31rzva">
            <path fill="#fff" transform="translate(11 11)" d="M0 0h18v18H0z"/>
        </clipPath>
    </defs>
</svg>
