<svg width="40" height="40" viewBox="0 0 40 40" fill="none" xmlns="http://www.w3.org/2000/svg">
    <circle cx="20" cy="20" r="20" fill="#FFFFFF"/>
    <path d="M15.5 18.2a.9.9 0 1 0 0 1.8.9.9 0 0 0 0-1.8zm10.8-3.6h-.9v-2.7a.9.9 0 0 0-.9-.9h-9a.9.9 0 0 0-.9.9v2.7h-.9a2.7 2.7 0 0 0-2.7 2.7v5.4a2.7 2.7 0 0 0 2.7 2.7h.9v2.7a.9.9 0 0 0 .9.9h9a.9.9 0 0 0 .9-.9v-2.7h.9a2.7 2.7 0 0 0 2.7-2.7v-5.4a2.7 2.7 0 0 0-2.7-2.7zm-9.9-1.8h7.2v1.8h-7.2v-1.8zm7.2 14.4h-7.2v-3.6h7.2v3.6zm3.6-4.5a.9.9 0 0 1-.9.9h-.9v-.9a.9.9 0 0 0-.9-.9h-9a.9.9 0 0 0-.9.9v.9h-.9a.9.9 0 0 1-.9-.9v-5.4a.9.9 0 0 1 .9-.9h12.6a.9.9 0 0 1 .9.9v5.4z" fill="#000"/>
</svg>
