<svg width="53" height="53" viewBox="0 0 53 53" fill="none" xmlns="http://www.w3.org/2000/svg">
    <path d="M28.369 28.368a16.619 16.619 0 1 1 0-23.5 16.663 16.663 0 0 1 0 23.5z" fill="#82C8EC"/>
    <path d="M25.595 25.594c-.064.07-.136.13-.216.182v.017a12.653 12.653 0 0 1-17.537-.017 1.984 1.984 0 0 1-.2-.182 12.695 12.695 0 1 1 17.953 0z" fill="#C9E7F7"/>
    <path d="m28.847 32.37 3.523-3.522a1.66 1.66 0 0 1 2.348 0l14.68 14.679a4.152 4.152 0 1 1-5.872 5.871L28.846 34.72a1.66 1.66 0 0 1 0-2.348z" fill="#57565C"/>
    <path d="m30.02 26.498-3.522 3.523 2.348 2.35 3.523-3.524-2.348-2.349z" fill="#D9D8DA"/>
    <path d="M25.379 25.775v.017a12.653 12.653 0 0 1-17.538-.017 5.138 5.138 0 0 1 5.115-4.716h7.325a5.123 5.123 0 0 1 5.098 4.716z" fill="#55BB8C"/>
    <path d="M19.548 19.113v.977a2.932 2.932 0 0 1-5.002 2.073 2.931 2.931 0 0 1-.858-2.072v-.976l5.86-.002z" fill="#FCC37A"/>
    <path d="M22.473 14.915a5.854 5.854 0 0 1-11.709 0 2.595 2.595 0 0 1 .034-.515 5.842 5.842 0 0 1 11.625-.166c.034.225.05.453.05.68z" fill="#FFD9AA"/>
    <path d="m22.423 14.234-.78-.25-4.8-1.361a3.322 3.322 0 0 0-2.159.116l-3.089 1.246-.797.415a5.842 5.842 0 0 1 11.625-.166z" fill="#57565C"/>
</svg>
