<svg width="14" height="14" viewBox="0 0 14 14" fill="none" xmlns="http://www.w3.org/2000/svg">
    <path d="M7 0a7 7 0 1 0 0 14A7 7 0 0 0 7 0zm3.243 5.064L6.89 10.188l-.003.003c-.017.026-.027.056-.049.08-.03.034-.07.051-.105.077l-.027.019a.568.568 0 0 1-.171.072l-.06.014a.593.593 0 0 1-.147.002.59.59 0 0 1-.102-.016.627.627 0 0 1-.101-.04c-.028-.014-.058-.017-.084-.034-.02-.012-.03-.031-.046-.046-.007-.006-.016-.008-.023-.014L4.02 8.5a.612.612 0 0 1 .831-.9l1.413 1.308 2.953-4.515a.613.613 0 0 1 1.026.67z" fill="#135033"/>
</svg>
